<svg height="511pt" viewBox="0 0 511.99912 511" width="511pt" xmlns="http://www.w3.org/2000/svg"><path d="m48.398438 226.9375c-13.855469-14.496094-23.804688-31.660156-29.570313-51.019531-9.605469-32.242188-6.078125-66.292969 9.929687-95.882813 16.007813-29.589844 42.582032-51.175781 74.824219-60.78125 45.535157-13.5625 94.234375-.636718 127.089844 33.734375 13.859375 14.496094 23.808594 31.660157 29.574219 51.019531 19.824218 66.558594-18.195313 136.839844-84.753906 156.664063-45.535157 13.566406-94.234376.636719-127.089844-33.730469-.003906-.003906 0 0-.003906-.003906zm164.078124-156.59375c-26.296874-27.507812-65.273437-37.851562-101.71875-26.996094-25.808593 7.6875-47.074218 24.964844-59.890624 48.648438-12.8125 23.683594-15.632813 50.941406-7.945313 76.746094 4.613281 15.492187 12.578125 29.234374 23.675781 40.84375 26.296875 27.507812 65.273438 37.851562 101.71875 26.996093 25.808594-7.6875 47.078125-24.964843 59.890625-48.648437s15.632813-50.941406 7.945313-76.746094c-4.613282-15.496094-12.578125-29.234375-23.675782-40.84375zm0 0" fill="#bebebe"/><path d="m230.375 112.90625 11.035156 36.894531c4.542969 15.179688 21.167969 23.144531 35.84375 17.175781l39.558594-16.097656c5.277344-2.132812 8.066406-7.929687 6.441406-13.382812l-28.59375-95.992188c-1.625-5.457031-7.132812-8.78125-12.714844-7.679687l-51.796874 10.222656c-33.148438-31.210937-81.582032-44.484375-128.289063-30.570313-62.371094 18.578126-100.746094 79.160157-93.445313 141.652344 1.339844 11.480469 11.722657 19.117188 22.949219 16.367188 9.195313-2.25 15.175781-10.988282 14.050781-20.292969-5.425781-45 22.15625-88.699219 67.066407-102.074219 50.167969-14.945312 102.949219 13.609375 117.894531 63.777344zm0 0" fill="#676a75"/><path d="m311.410156 97.742188-76.285156 31.039062 6.285156 21.019531c4.542969 15.179688 21.167969 23.144531 35.84375 17.175781l39.558594-16.097656c5.277344-2.132812 8.066406-7.929687 6.441406-13.382812zm0 0" fill="#454851"/><path d="m398.84375 502.792969c-19.785156 3.253906-39.570312 1.777343-58.804688-4.394531-32.035156-10.273438-58.152343-32.410157-73.535156-62.328126-15.386718-29.917968-18.203125-64.039062-7.925781-96.074218 14.511719-45.242188 52.675781-78.140625 99.59375-85.855469 19.785156-3.253906 39.574219-1.777344 58.808594 4.394531 66.128906 21.210938 102.671875 92.273438 81.460937 158.402344-14.511718 45.242188-52.675781 78.140625-99.59375 85.855469-.003906 0 0 0-.003906 0zm-36.617188-223.835938c-37.554687 6.175781-68.09375 32.507813-79.710937 68.71875-8.226563 25.640625-5.972656 52.949219 6.34375 76.898438 12.3125 23.945312 33.21875 41.664062 58.859375 49.886719 15.394531 4.9375 31.230469 6.121093 47.078125 3.515624 37.550781-6.175781 68.09375-32.507812 79.707031-68.71875 8.226563-25.640624 5.972656-52.949218-6.34375-76.894531-12.3125-23.949219-33.214844-41.664062-58.859375-49.890625-15.390625-4.9375-31.230469-6.121094-47.074219-3.515625zm0 0" fill="#bebebe"/><path d="m407.460938 288.214844 36.683593 11.71875c15.089844 4.820312 31.054688-4.402344 34.410157-19.886719l9.046874-41.738281c1.21875-5.558594-1.992187-11.132813-7.410156-12.871094l-95.375-30.59375c-5.417968-1.738281-11.273437.929688-13.515625 6.160156l-20.804687 48.523438c-44.476563 9.738281-82.777344 42.222656-97.664063 88.628906-19.875 61.96875 8.464844 127.847656 64.167969 157.101562 10.230469 5.371094 22.398438 1.117188 26.464844-9.703124 3.332031-8.863282-.503906-18.730469-8.816406-23.054688-40.207032-20.925781-60.703126-68.363281-46.390626-112.980469 15.988282-49.847656 69.359376-77.292969 119.203126-61.304687zm0 0" fill="#676a75"/><path d="m480.191406 225.4375-38.746094-12.429688-17.449218 80.488282 20.148437 6.4375c15.089844 4.820312 31.054688-4.40625 34.410157-19.886719l9.046874-41.738281c1.21875-5.558594-1.992187-11.132813-7.410156-12.871094zm0 0" fill="#454851"/><path d="m375.34375 511.894531c-4.136719-.152343-7.417969-3.535156-7.316406-7.675781.097656-4.140625 3.546875-7.425781 7.675781-7.320312 7.273437.167968 14.65625-.347657 21.949219-1.542969 44.128906-7.257813 80.023437-38.199219 93.671875-80.75 9.246093-28.824219 7.136719-59.773438-5.9375-87.152344-1.785157-3.738281-.203125-8.214844 3.535156-10 3.730469-1.785156 8.214844-.203125 10 3.535156 14.726563 30.84375 17.101563 65.71875 6.683594 98.199219-15.375 47.933594-55.808594 82.789062-105.515625 90.964844-7.1875 1.183594-17.707032 2-24.746094 1.742187zm0 0"/><path d="m482.503906 218.253906-44.585937-14.300781 3.640625-12.648437c9.902344 1.230468 19.847656-4.757813 23.046875-14.550782l7.667969-23.503906c3.476562-10.65625-1.914063-22.109375-12.089844-26.34375l.914062-25.992188c11.128906-9.425781 9.046875-22.734374.816406-30.988281l-17.460937-17.507812c-8.320313-8.339844-20.847656-9.859375-30.714844.464843l-26.691406.9375c-4.359375-9.742187-15.707031-15-26.078125-11.660156l-23.53125 7.589844c-9.761719 3.148438-15.707031 12.703125-14.695312 22.523438l-10.246094 2.722656-10.625-35.671875c-2.742188-9.214844-11.921875-14.75-21.355469-12.894531l-48.078125 9.484374c-36.015625-32.054687-86.488281-43.433593-132.695312-29.667968-31.644532 9.425781-58.988282 29.832031-76.992188 57.453125-17.796875 27.300781-25.691406 60.085937-21.761719 92.257812 2.6875 21.980469 23.183594 24.730469 32.183594 22.78125 12.898437-2.792969 21.292969-15.378906 19.714844-28.472656-5.101563-42.28125 20.871093-81.8125 61.757812-93.992187 22.34375-6.652344 45.941407-4.210938 66.445313 6.882812 20.507812 11.09375 35.464844 29.507812 42.121094 51.851562v.007813l11.039062 36.894531c2.769531 9.257813 9.355469 16.957032 18.066406 21.132813 8.710938 4.171875 18.839844 4.476562 27.785156.839843l39.546876-16.089843c8.910156-3.605469 13.558593-13.265625 10.816406-22.476563l-13.683594-45.941406 10.339844-2.75c6.167968 13.015625 19.855468 12.171875 25.542968 10.328125l23.53125-7.589844c9.148438-2.949219 14.949219-11.527343 14.804688-20.675781l12.039062-.421875c-1.683593 8.429687 3.09375 15.980469 6.296876 19.183594l17.460937 17.503906c5.136719 5.152344 12.273437 7.125 18.941406 5.925781l-.417969 12c-12.105468-.523437-18.496093 9.738282-20.203124 14.988282l-7.667969 23.503906c-3.210938 9.84375 1.140625 20.371094 9.847656 25.253906l-3.667969 12.746094-36.5-11.710938c-9.148437-2.933594-18.910156 1.515625-22.695312 10.347656l-19.3125 45.039063c-46.792969 11.632813-84.675782 46.867187-99.402344 92.78125-10.085938 31.441406-8.679688 65.527344 3.953125 95.984375 12.488281 30.097656 35.199219 54.917969 63.867187 70.042969 17.851563 9.421875 33.226563-2.699219 36.972657-13.699219 4.253906-12.492188-.675781-26.261719-12.375-32.347656-37.78125-19.660156-55.742188-63.414063-42.714844-104.039063 7.121094-22.199219 22.460937-40.296875 43.195313-50.960937 20.730468-10.660156 44.375-12.613282 66.578124-5.492188l.007813.003906 36.683594 11.71875c9.199219 2.9375 19.277343 1.851563 27.640625-2.980468 8.363281-4.835938 14.335937-13.023438 16.382812-22.460938l9.042969-41.722656c2.054687-9.390625-3.296875-18.6875-12.449219-21.621094zm-168.496094-74.359375-39.558593 16.09375c-5.113281 2.082031-10.671875 1.917969-15.652344-.472656-4.980469-2.386719-8.59375-6.613281-10.179687-11.902344l-11.035157-36.894531c-7.800781-26.179688-25.328125-47.757812-49.355469-60.753906-24.027343-13-51.679687-15.863282-77.863281-8.066406-23.269531 6.933593-43.355469 21.949218-56.558593 42.285156-13.050782 20.101562-18.667969 44.207031-15.8125 67.878906.671874 5.566406-2.988282 10.578125-8.390626 12.109375-4.46875 1.269531-12.71875-1.148437-13.714843-9.953125-3.253907-28.734375 3.542969-57.957031 19.425781-82.328125 16.066406-24.648437 40.46875-42.855469 68.710938-51.269531 11.574218-3.449219 23.445312-5.125 35.25-5.125 31.390624 0 62.289062 11.875 85.757812 33.972656 1.761719 1.65625 4.214844 2.359375 6.59375 1.894531l51.796875-10.222656c1.804687-.363281 3.550781.703125 4.074219 2.460937l28.59375 95.992188c.523437 1.761719-.363282 3.605469-2.082032 4.300781zm57.582032-68.804687-23.527344 7.589844c-3.339844 1.070312-6.9375-.761719-8.015625-4.101563l-2.109375-6.542969c-1.074219-3.339844.765625-6.933594 4.105469-8.011718l23.53125-7.589844c5.976562-1.855469 7.488281 2.484375 8.011719 4.105468l2.109374 6.539063c.519532 1.621094 2.253907 6.183594-4.105468 8.011719zm65.824218 19.269531-17.460937-17.503906c-2.472656-2.484375-2.472656-6.523438.011719-9l4.867187-4.855469c2.484375-2.476562 6.523438-2.472656 9 .011719l17.460938 17.503906c4.375 4.480469 1.195312 7.800781-.011719 9.003906l-4.863281 4.851563c-1.207031 1.203125-4.484375 4.820312-9.003907-.011719zm-5.707031 71.664063 7.667969-23.507813c1.09375-3.332031 4.691406-5.164063 8.027344-4.074219l6.535156 2.128906c3.335938 1.089844 5.164062 4.691407 4.074219 8.027344l-7.667969 23.503906c-2.003906 5.929688-6.40625 4.605469-8.023438 4.078126l-6.535156-2.132813c-1.617187-.527344-6.328125-1.804687-4.078125-8.023437zm48.589844 70.65625-9.046875 41.738281c-1.171875 5.398437-4.449219 9.890625-9.226562 12.652343-4.78125 2.765626-10.3125 3.363282-15.574219 1.679688l-36.675781-11.714844c-26.015626-8.34375-53.722657-6.058594-78.015626 6.4375-24.296874 12.492188-42.273437 33.699219-50.617187 59.714844-7.414063 23.121094-6.359375 48.175781 2.96875 70.554688 9.222656 22.121093 25.953125 40.363281 47.101563 51.371093 4.976562 2.589844 7.308593 8.53125 5.257812 13.761719-3.371094 8.613281-12.808594 7.359375-15.960938 5.703125-53.574218-28.136719-79.023437-90.449219-60.511718-148.167969 13.496094-42.074218 48.796875-74.105468 92.125-83.597656 2.367187-.515625 4.335937-2.144531 5.289062-4.367188l20.804688-48.527343c.574218-1.335938 1.863281-2.144531 3.242187-2.144531.359375 0 .726563.054687 1.089844.171874l95.375 30.59375c1.75.558594 2.769531 2.332032 2.375 4.140626zm0 0"/><path d="m251.976562 197.074219c-3.570312-2.09375-8.164062-.890625-10.257812 2.683593-15.234375 26.03125-39.503906 45.097657-68.34375 53.6875-42.824219 12.757813-88.625.597657-119.53125-31.726562-5.105469-5.347656-9.707031-11.148438-13.667969-17.242188-2.253906-3.472656-6.898437-4.457031-10.371093-2.203124-3.472657 2.257812-4.460938 6.902343-2.203126 10.375 4.46875 6.875 9.648438 13.414062 15.402344 19.433593 25.671875 26.855469 60.46875 41.351563 96.320313 41.351563 12.765625 0 25.667969-1.839844 38.335937-5.613282 32.496094-9.679687 59.839844-31.164062 77.003906-60.488281 2.089844-3.570312.886719-8.167969-2.6875-10.257812zm0 0"/><path d="m139.363281 248.28125c10.363281 0 20.835938-1.492188 31.117188-4.554688 26.300781-7.832031 48.441406-25.140624 62.347656-48.726562 2.101563-3.570312.914063-8.167969-2.65625-10.269531-3.566406-2.101563-8.164063-.914063-10.265625 2.652343-11.972656 20.316407-31.046875 35.222657-53.707031 41.972657-33.738281 10.042969-69.816407.472656-94.15625-24.992188-2.859375-2.988281-5.527344-6.175781-7.933594-9.46875-2.445313-3.34375-7.136719-4.074219-10.480469-1.628906-3.34375 2.441406-4.070312 7.132813-1.628906 10.476563 2.792969 3.824218 5.886719 7.519531 9.199219 10.984374 20.835937 21.792969 49.070312 33.554688 78.164062 33.554688zm0 0"/><path d="m466.664062 328.917969c-3.75 1.757812-5.363281 6.222656-3.605468 9.972656 10.015625 21.355469 11.550781 45.519531 4.328125 68.039063-10.75 33.515624-39.023438 57.890624-73.78125 63.605468-4.042969.664063-8.140625 1.066406-12.183594 1.199219-4.136719.132813-7.386719 3.597656-7.25 7.738281.128906 4.054688 3.460937 7.253906 7.488281 7.253906.082032 0 .164063 0 .246094-.003906 4.695312-.148437 9.449219-.617187 14.128906-1.386718 40.34375-6.636719 73.15625-34.925782 85.632813-73.828126 8.386719-26.136718 6.601562-54.1875-5.03125-78.984374-1.757813-3.75-6.226563-5.367188-9.972657-3.605469zm0 0"/><path d="m426.40625 225.347656c-6.546875-1.984375-19.148438-2.914062-25.21875 13.007813l-2.128906 6.671875c-3.367188 10.539062 2.460937 21.875 13.003906 25.21875 7.566406 2.402344 20.441406.65625 25.21875-13.007813l2.132812-6.671875c4.027344-11.160156-1.996093-21.882812-13.007812-25.21875zm-1.277344 20.65625-2.132812 6.671875c-.410156 1.289063-2.992188 4.316407-6.367188 3.285157-2.671875-.816407-4.132812-3.707032-3.285156-6.367188l2.132812-6.671875c1.71875-4.144531 5.214844-3.636719 6.367188-3.285156 4.140625 1.253906 3.695312 5.078125 3.285156 6.367187zm0 0"/><path d="m267.820312 79.554688-6.707031 2.027343c-10.589843 3.199219-16.625 14.425781-13.402343 25.011719 2.308593 7.589844 11.042968 17.210938 25.007812 13.402344l6.707031-2.023438c11.476563-3.011718 16.898438-14.050781 13.402344-25.011718-2.074219-6.519532-8.453125-17.429688-25.007813-13.40625zm7.265626 24.058593-6.707032 2.027344c-1.292968.390625-5.25-.019531-6.3125-3.386719-.839844-2.664062.710938-5.507812 3.386719-6.316406l6.703125-2.023438c4.386719-.933593 5.953125 2.238282 6.316406 3.382813 1.3125 4.125-2.089844 5.925781-3.386718 6.316406zm0 0"/></svg>